<?xml version="1.0" encoding="UTF-8" standalone="no"?>
<svg
   xmlns:osb="http://www.openswatchbook.org/uri/2009/osb"
   xmlns:dc="http://purl.org/dc/elements/1.1/"
   xmlns:cc="http://creativecommons.org/ns#"
   xmlns:rdf="http://www.w3.org/1999/02/22-rdf-syntax-ns#"
   xmlns:svg="http://www.w3.org/2000/svg"
   xmlns="http://www.w3.org/2000/svg"
   xmlns:sodipodi="http://sodipodi.sourceforge.net/DTD/sodipodi-0.dtd"
   xmlns:inkscape="http://www.inkscape.org/namespaces/inkscape"
   width="24"
   height="24"
   id="svg5692"
   version="1.1"
   inkscape:version="1.0.1 (3bc2e813f5, 2020-09-07)"
   sodipodi:docname="plugin.svg"
   inkscape:export-filename="/home/nyall/dev/qgis-cartography-tools/cartography_tools/icon.png"
   inkscape:export-xdpi="96"
   inkscape:export-ydpi="96">
  <title
     id="title2829">GIS icon theme 0.2</title>
  <defs
     id="defs5694">
    <linearGradient
       id="linearGradient5625"
       osb:paint="gradient">
      <stop
         style="stop-color:#7a0000;stop-opacity:1;"
         offset="0"
         id="stop5627" />
      <stop
         style="stop-color:#7a0000;stop-opacity:0;"
         offset="1"
         id="stop5629" />
    </linearGradient>
  </defs>
  <sodipodi:namedview
     id="base"
     pagecolor="#ffffff"
     bordercolor="#666666"
     borderopacity="1.0"
     inkscape:pageopacity="0.0"
     inkscape:pageshadow="2"
     inkscape:zoom="34.32"
     inkscape:cx="15.450384"
     inkscape:cy="11.10827"
     inkscape:current-layer="layer2"
     showgrid="true"
     inkscape:grid-bbox="true"
     inkscape:document-units="px"
     borderlayer="false"
     inkscape:window-width="2560"
     inkscape:window-height="1403"
     inkscape:window-x="0"
     inkscape:window-y="0"
     inkscape:window-maximized="1"
     inkscape:snap-global="false"
     showguides="true"
     inkscape:guide-bbox="true"
     inkscape:snap-object-midpoints="true"
     inkscape:snap-grids="false"
     inkscape:object-paths="false"
     inkscape:snap-bbox="true"
     inkscape:document-rotation="0">
    <inkscape:grid
       type="xygrid"
       id="grid5700"
       empspacing="5"
       visible="true"
       enabled="true"
       snapvisiblegridlinesonly="true"
       dotted="false"
       originx="0"
       originy="0"
       spacingx="1"
       spacingy="1" />
  </sodipodi:namedview>
  <metadata
     id="metadata5697">
    <rdf:RDF>
      <cc:Work
         rdf:about="">
        <dc:format>image/svg+xml</dc:format>
        <dc:type
           rdf:resource="http://purl.org/dc/dcmitype/StillImage" />
        <dc:title>GIS icon theme 0.2</dc:title>
        <dc:creator>
          <cc:Agent>
            <dc:title>Robert Szczepanek</dc:title>
          </cc:Agent>
        </dc:creator>
        <dc:rights>
          <cc:Agent>
            <dc:title>Robert Szczepanek</dc:title>
          </cc:Agent>
        </dc:rights>
        <dc:subject>
          <rdf:Bag>
            <rdf:li>GIS icons</rdf:li>
          </rdf:Bag>
        </dc:subject>
        <dc:coverage>GIS icons</dc:coverage>
        <dc:description>http://robert.szczepanek.pl/</dc:description>
        <cc:license
           rdf:resource="http://creativecommons.org/licenses/by-sa/4.0/" />
      </cc:Work>
      <cc:License
         rdf:about="http://creativecommons.org/licenses/by-sa/4.0/">
        <cc:permits
           rdf:resource="http://creativecommons.org/ns#Reproduction" />
        <cc:permits
           rdf:resource="http://creativecommons.org/ns#Distribution" />
        <cc:requires
           rdf:resource="http://creativecommons.org/ns#Notice" />
        <cc:requires
           rdf:resource="http://creativecommons.org/ns#Attribution" />
        <cc:permits
           rdf:resource="http://creativecommons.org/ns#DerivativeWorks" />
        <cc:requires
           rdf:resource="http://creativecommons.org/ns#ShareAlike" />
      </cc:License>
    </rdf:RDF>
  </metadata>
  <g
     inkscape:groupmode="layer"
     id="layer2"
     inkscape:label="Layer"
     style="display:inline"
     transform="translate(0,-8)">
    <path
       id="rect882"
       style="fill:#e4dedb;fill-opacity:1;stroke:none;stroke-width:1;stroke-linecap:round;stroke-linejoin:round;stroke-miterlimit:4;stroke-dasharray:none;paint-order:markers fill stroke"
       d="m 1.5,11.5 7,2.5 v 16 l -7,-2 z"
       sodipodi:nodetypes="ccccc" />
    <path
       id="rect882-3"
       style="display:inline;fill:#cec4bf;fill-opacity:1;stroke:none;stroke-width:1;stroke-linecap:round;stroke-linejoin:round;stroke-miterlimit:4;stroke-dasharray:none;paint-order:markers fill stroke"
       d="m 8.5,14 7,-2.5 V 28 l -7,2 z"
       sodipodi:nodetypes="ccccc" />
    <path
       id="rect882-3-6"
       style="display:inline;fill:#e2dcd9;fill-opacity:1;stroke:none;stroke-width:1;stroke-linecap:round;stroke-linejoin:round;stroke-miterlimit:4;stroke-dasharray:none;paint-order:markers fill stroke"
       d="m 15.5,11.5 7,2.5 v 16 l -7,-2 z"
       sodipodi:nodetypes="ccccc" />
    <path
       style="color:#000000;font-style:normal;font-variant:normal;font-weight:normal;font-stretch:normal;font-size:medium;line-height:normal;font-family:sans-serif;font-variant-ligatures:normal;font-variant-position:normal;font-variant-caps:normal;font-variant-numeric:normal;font-variant-alternates:normal;font-variant-east-asian:normal;font-feature-settings:normal;font-variation-settings:normal;text-indent:0;text-align:start;text-decoration:none;text-decoration-line:none;text-decoration-style:solid;text-decoration-color:#000000;letter-spacing:normal;word-spacing:normal;text-transform:none;writing-mode:lr-tb;direction:ltr;text-orientation:mixed;dominant-baseline:auto;baseline-shift:baseline;text-anchor:start;white-space:normal;shape-padding:0;shape-margin:0;inline-size:0;clip-rule:nonzero;display:inline;overflow:visible;visibility:visible;isolation:auto;mix-blend-mode:normal;color-interpolation:sRGB;color-interpolation-filters:linearRGB;solid-color:#000000;solid-opacity:1;vector-effect:none;fill:#386e77;fill-opacity:1;fill-rule:nonzero;stroke:none;stroke-width:1;stroke-linecap:round;stroke-linejoin:miter;stroke-miterlimit:4;stroke-dasharray:1, 2;stroke-dashoffset:0;stroke-opacity:1;color-rendering:auto;image-rendering:auto;shape-rendering:auto;text-rendering:auto;enable-background:accumulate;stop-color:#000000;stop-opacity:1;opacity:1"
       d="M 16.410156 19.080078 A 0.5 0.5 0 0 0 15.917969 19.455078 A 0.5 0.5 0 0 0 16.275391 20.064453 C 16.584424 20.145231 16.89158 20.238569 17.199219 20.341797 A 0.5 0.5 0 0 0 17.833984 20.027344 A 0.5 0.5 0 0 0 17.517578 19.394531 C 17.193268 19.285709 16.863299 19.185471 16.527344 19.097656 A 0.5 0.5 0 0 0 16.410156 19.080078 z M 14.455078 19.103516 A 0.5 0.5 0 0 0 14.326172 19.119141 C 13.992649 19.206247 13.65711 19.305184 13.326172 19.423828 A 0.5 0.5 0 0 0 13.025391 20.0625 A 0.5 0.5 0 0 0 13.664062 20.365234 C 13.960744 20.258872 14.266691 20.167274 14.578125 20.085938 A 0.5 0.5 0 0 0 14.935547 19.476562 A 0.5 0.5 0 0 0 14.455078 19.103516 z M 19.21875 20.001953 A 0.5 0.5 0 0 0 18.775391 20.363281 A 0.5 0.5 0 0 0 19.119141 20.980469 C 19.454325 21.076899 19.799358 21.160251 20.158203 21.212891 A 0.5 0.5 0 0 0 20.726562 20.791016 A 0.5 0.5 0 0 0 20.304688 20.224609 C 20.003841 20.180478 19.699735 20.107336 19.394531 20.019531 A 0.5 0.5 0 0 0 19.21875 20.001953 z M 11.720703 20.339844 A 0.5 0.5 0 0 0 11.433594 20.445312 C 11.148535 20.668547 10.879689 20.918743 10.638672 21.203125 A 0.5 0.5 0 0 0 10.695312 21.908203 A 0.5 0.5 0 0 0 11.400391 21.849609 C 11.590698 21.625061 11.810991 21.420205 12.050781 21.232422 A 0.5 0.5 0 0 0 12.136719 20.529297 A 0.5 0.5 0 0 0 11.720703 20.339844 z M 9.8730469 22.654297 A 0.5 0.5 0 0 0 9.4511719 22.861328 C 9.2669973 23.117558 9.0766014 23.354446 8.8671875 23.556641 A 0.5 0.5 0 0 0 8.8554688 24.263672 A 0.5 0.5 0 0 0 9.5625 24.277344 C 9.8330504 24.016121 10.059024 23.730026 10.263672 23.445312 A 0.5 0.5 0 0 0 10.150391 22.748047 A 0.5 0.5 0 0 0 9.8730469 22.654297 z M 3.5742188 22.826172 A 0.5 0.5 0 0 0 3.0996094 23.144531 A 0.5 0.5 0 0 0 3.3828125 23.791016 C 3.7049075 23.917649 4.0289217 24.03074 4.3515625 24.136719 A 0.5 0.5 0 0 0 4.9824219 23.818359 A 0.5 0.5 0 0 0 4.6640625 23.1875 C 4.3534244 23.085464 4.0463794 22.978619 3.7480469 22.861328 A 0.5 0.5 0 0 0 3.5742188 22.826172 z M 6.4238281 23.697266 A 0.5 0.5 0 0 0 5.9453125 24.087891 A 0.5 0.5 0 0 0 6.3242188 24.685547 C 6.6573141 24.759877 6.9952208 24.827268 7.3378906 24.880859 A 0.5 0.5 0 0 0 7.9101562 24.462891 A 0.5 0.5 0 0 0 7.4921875 23.892578 C 7.1761837 23.843157 6.8604749 23.779836 6.5429688 23.708984 A 0.5 0.5 0 0 0 6.4238281 23.697266 z "
       id="path865" />
    <path
       id="rect882-7"
       style="display:inline;fill:none;fill-opacity:1;stroke:#808080;stroke-width:1;stroke-linecap:round;stroke-linejoin:round;stroke-miterlimit:4;stroke-dasharray:none;paint-order:markers fill stroke"
       d="m 1.5,11.5 7,2.5 V 30.5 L 1.5,28 Z"
       sodipodi:nodetypes="ccccc" />
    <path
       id="rect882-3-5"
       style="display:inline;fill:none;fill-opacity:1;stroke:#808080;stroke-width:1;stroke-linecap:round;stroke-linejoin:round;stroke-miterlimit:4;stroke-dasharray:none;paint-order:markers fill stroke"
       d="m 8.5,14 7,-2.5 V 28 l -7,2.5 z"
       sodipodi:nodetypes="ccccc" />
    <path
       id="rect882-3-6-3"
       style="display:inline;fill:none;fill-opacity:1;stroke:#808080;stroke-width:1;stroke-linecap:round;stroke-linejoin:round;stroke-miterlimit:4;stroke-dasharray:none;paint-order:markers fill stroke"
       d="m 15.5,11.5 7,2.5 v 16.5 l -7,-2.5 z"
       sodipodi:nodetypes="ccccc" />
    <path
       d="m 4.9413064,17.967403 2.8117112,1.64722 -3.3558429,2.466376 z"
       fill="#505050"
       stroke="#2a2a2a"
       stroke-linecap="round"
       stroke-width="0.750003"
       id="path8"
       style="fill:#386e77;fill-opacity:1;stroke:#274d53;stroke-linejoin:round;stroke-dashoffset:0.5;stroke-opacity:1" />
    <path
       d="M 9.5407751,9.8837005 12.352487,11.530931 7.7530176,19.614623 4.9413064,17.967403 Z"
       fill="#fb7123"
       stroke="#474747"
       stroke-linecap="round"
       stroke-width="0.750003"
       id="path10"
       style="stroke-linejoin:round;stroke-dashoffset:0.5;fill:#87cdde;stroke:#162d50" />
    <path
       d="M 11.292438,11.53171 7.1110127,18.82849"
       fill-opacity="0.706468"
       opacity="0.363"
       stroke="#000000"
       stroke-width="2"
       id="path14"
       style="stroke-width:1.1;stroke-linejoin:round;stroke-miterlimit:4;stroke-dasharray:none;stroke-dashoffset:0.5"
       sodipodi:nodetypes="cc" />
    <path
       d="M 5.1121893,21.36474 7.3855751,19.562155 6.4497641,19.013918 5.1121893,21.364741 Z"
       fill="#969696"
       stroke="#969696"
       stroke-linecap="square"
       stroke-width="0.5"
       id="path16"
       style="fill:#ffd42a;stroke:#ffd42a;stroke-linejoin:round;stroke-dashoffset:0.5" />
    <path
       d="M 9.7344949,9.2898205 12.76249,11.06376 12.172911,12.099962 9.1449156,10.326028 Z"
       fill="#e6e6e6"
       stroke="#969696"
       stroke-linecap="round"
       stroke-width="0.499999"
       id="path18"
       style="stroke-linejoin:round;stroke-dashoffset:0.5" />
    <path
       d="m 4.7252125,21.238405 0.4445957,-2.97434 0.9358112,0.548239 z"
       fill="#e6e6e6"
       stroke="#e6e6e6"
       stroke-linecap="square"
       stroke-width="0.5"
       id="path20"
       style="fill:#ffe680;stroke:#ffe680;stroke-linejoin:round;stroke-dashoffset:0.5" />
  </g>
</svg>
