<?xml version="1.0" encoding="UTF-8" standalone="no"?>
<svg
   xmlns:dc="http://purl.org/dc/elements/1.1/"
   xmlns:cc="http://creativecommons.org/ns#"
   xmlns:rdf="http://www.w3.org/1999/02/22-rdf-syntax-ns#"
   xmlns:svg="http://www.w3.org/2000/svg"
   xmlns="http://www.w3.org/2000/svg"
   xmlns:sodipodi="http://sodipodi.sourceforge.net/DTD/sodipodi-0.dtd"
   xmlns:inkscape="http://www.inkscape.org/namespaces/inkscape"
   height="24"
   viewBox="0 0 24 24"
   width="24"
   version="1.1"
   id="svg12"
   sodipodi:docname="single_point_templated_marker.svg"
   inkscape:version="1.0.1 (3bc2e813f5, 2020-09-07)">
  <metadata
     id="metadata18">
    <rdf:RDF>
      <cc:Work
         rdf:about="">
        <dc:format>image/svg+xml</dc:format>
        <dc:type
           rdf:resource="http://purl.org/dc/dcmitype/StillImage" />
        <dc:title></dc:title>
      </cc:Work>
    </rdf:RDF>
  </metadata>
  <defs
     id="defs16" />
  <sodipodi:namedview
     pagecolor="#ffffff"
     bordercolor="#666666"
     borderopacity="1"
     objecttolerance="10"
     gridtolerance="10"
     guidetolerance="10"
     inkscape:pageopacity="0"
     inkscape:pageshadow="2"
     inkscape:window-width="1572"
     inkscape:window-height="969"
     id="namedview14"
     showgrid="false"
     inkscape:zoom="21"
     inkscape:cx="11.461381"
     inkscape:cy="12.730585"
     inkscape:window-x="703"
     inkscape:window-y="306"
     inkscape:window-maximized="0"
     inkscape:current-layer="svg12" />
  <path
     d="M 7.2521005,18.915887 C 0.27264961,13.379039 4.314926,5.78531 10.008138,4.798262"
     fill="none"
     stroke="#373737"
     id="path2" />
  <path
     d="m 21,7.5 -8.5,5.045263 V 2.684047 Z"
     fill="#8cbe8c"
     fill-rule="evenodd"
     stroke="#4c4d4c"
     stroke-linejoin="round"
     stroke-opacity="0.933333"
     id="path6" />
  <path
     d="M 7.6400122,3.421427 10.586669,4.673313 8.7184887,7.273295"
     fill="none"
     stroke="#373737"
     id="path8" />
  <g
     transform="translate(33)"
     id="g10">
    <rect
       fill="#c4a000"
       height="11"
       rx="2.0114901"
       width="11"
       x="-20"
       y="13"
       id="rect2" />
    <g
       fill="#fcffff"
       id="g8">
      <path
         d="m -15,14 v 2.0625 c -0.537663,0.111041 -1.024662,0.383291 -1.375,0.78125 l -1.78125,-1.03125 -0.5,0.875 1.78125,1.03125 C -16.957063,17.966182 -17,18.225145 -17,18.5 c 0,0.274855 0.04294,0.533818 0.125,0.78125 l -1.78125,1.03125 0.5,0.875 1.78125,-1.03125 c 0.352503,0.40042 0.832682,0.670182 1.375,0.78125 V 23 h 1 v -2.0625 c 0.537663,-0.111041 1.024662,-0.383291 1.375,-0.78125 l 1.78125,1.03125 0.5,-0.875 -1.78125,-1.03125 C -12.042937,19.033818 -12,18.774855 -12,18.5 c 0,-0.274855 -0.04294,-0.533818 -0.125,-0.78125 l 1.78125,-1.03125 -0.5,-0.875 -1.78125,1.03125 C -12.977503,16.44333 -13.457682,16.173568 -14,16.0625 V 14 Z m 0.5,3.5 c 0.552,0 1,0.448 1,1 0,0.552 -0.448,1 -1,1 -0.552,0 -1,-0.448 -1,-1 0,-0.552 0.448,-1 1,-1 z"
         id="path4" />
      <path
         d="m -19,19 9,-0.0096 c 0,0 0,0 0,-2 C -10,14 -11,14 -14.5,14 -18,14 -19,14 -19,17 Z"
         fill-rule="evenodd"
         opacity="0.3"
         id="path6-3" />
    </g>
  </g>
</svg>
